<svg width="300" height="63" viewBox="0 0 300 63" fill="none" xmlns="http://www.w3.org/2000/svg">
<path d="M3.15134 55.8275V59.8499C3.15134 60.6853 3.48336 61.4865 4.07435 62.0772C4.66534 62.668 5.46689 62.9998 6.30268 62.9998H9.45402C10.2898 62.9998 11.0914 62.668 11.6824 62.0772C12.2733 61.4865 12.6054 60.6853 12.6054 59.8499V56.7H50.4215V59.8499C50.4215 60.6853 50.7535 61.4865 51.3445 62.0772C51.9355 62.668 52.737 62.9998 53.5728 62.9998H56.7241C57.5599 62.9998 58.3615 62.668 58.9525 62.0772C59.5435 61.4865 59.8755 60.6853 59.8755 59.8499V55.8275C60.8316 55.2794 61.6263 54.4892 62.1795 53.5363C62.7328 52.5835 63.025 51.5018 63.0268 50.4001V40.9504C63.0268 38.3328 61.4291 36.0932 59.157 35.1388L54.8459 22.2115C54.2206 20.3293 53.0177 18.6921 51.4082 17.5323C49.7987 16.3725 47.8645 15.7492 45.8804 15.751H17.1464C15.1623 15.7492 13.2281 16.3725 11.6186 17.5323C10.0091 18.6921 8.80626 20.3293 8.18088 22.2115L3.86985 35.1388C2.7237 35.6186 1.74493 36.4262 1.05644 37.4601C0.367941 38.4941 0.000411761 39.7083 0 40.9504V50.4001C0 52.7248 1.27314 54.7344 3.15134 55.8275ZM11.0297 50.4001C10.4087 50.3999 9.79388 50.2775 9.22026 50.0398C8.64664 49.802 8.12548 49.4537 7.68654 49.0147C6.80005 48.128 6.30226 46.9256 6.30268 45.6721C6.3031 44.4186 6.80169 43.2165 7.68877 42.3304C8.57584 41.4444 9.77875 40.9468 11.0328 40.9472C12.2869 40.9476 13.4895 41.446 14.376 42.3327C15.2625 43.2194 15.7603 44.4217 15.7599 45.6753C15.7594 46.9288 15.2608 48.1308 14.3738 49.0169C13.4867 49.903 12.2838 50.4006 11.0297 50.4001ZM51.9971 50.4001C50.743 50.3997 49.5405 49.9014 48.654 49.0147C47.7675 48.128 47.2697 46.9256 47.2701 45.6721C47.2705 44.4186 47.7691 43.2165 48.6562 42.3304C49.5433 41.4444 50.7462 40.9468 52.0003 40.9472C53.2544 40.9476 54.4569 41.446 55.3434 42.3327C56.2299 43.2194 56.7277 44.4217 56.7273 45.6753C56.7269 46.9288 56.2283 48.1308 55.3412 49.0169C54.4541 49.903 53.2512 50.4006 51.9971 50.4001ZM17.1464 22.0508H45.8772C46.5389 22.0507 47.1838 22.2587 47.7206 22.6454C48.2574 23.0321 48.6588 23.5779 48.8678 24.2054L52.3532 34.6505H10.6736L14.1558 24.2054C14.5876 22.9171 15.7914 22.0508 17.1464 22.0508Z" fill="#0729A2"/>
<path d="M63.0268 16.9734V10.3302L32.5092 0.162239C31.8348 -0.0634107 31.1037 -0.0534156 30.4357 0.190588L0 11.2531V17.9562L31.5607 6.48413L63.0268 16.9734Z" fill="#0729A2"/>
<path d="M291.605 44.4763C289.689 44.4763 287.937 44.1361 286.348 43.4557C284.785 42.7754 283.512 41.8178 282.529 40.583L285.517 37.5591C286.122 38.4663 286.928 39.2097 287.937 39.7892C288.945 40.3688 290.143 40.6586 291.529 40.6586C292.512 40.6586 293.294 40.52 293.874 40.2428C294.479 39.9404 294.781 39.4742 294.781 38.8443C294.781 38.4411 294.643 38.1009 294.365 37.8237C294.088 37.5213 293.534 37.2819 292.702 37.1055L289.374 36.4251C287.18 35.9715 285.617 35.2911 284.685 34.384C283.777 33.4516 283.323 32.2546 283.323 30.7931C283.323 29.7599 283.626 28.7897 284.231 27.8825C284.861 26.9753 285.794 26.2446 287.029 25.6902C288.264 25.1106 289.802 24.8208 291.643 24.8208C293.534 24.8208 295.172 25.1232 296.559 25.728C297.971 26.3076 299.08 27.1769 299.887 28.3361L296.786 31.36C296.231 30.4781 295.5 29.8103 294.592 29.3567C293.71 28.8779 292.777 28.6385 291.794 28.6385C291.088 28.6385 290.483 28.7141 289.979 28.8653C289.475 29.0165 289.096 29.2307 288.844 29.5079C288.592 29.7599 288.466 30.0875 288.466 30.4907C288.466 30.8939 288.643 31.2466 288.996 31.549C289.349 31.8262 289.991 32.0656 290.924 32.2672L294.781 33.061C296.647 33.439 297.983 34.0816 298.79 34.9888C299.597 35.8707 300 36.9417 300 38.2017C300 39.4112 299.672 40.4948 299.017 41.4524C298.387 42.3848 297.441 43.1282 296.181 43.6825C294.945 44.2117 293.42 44.4763 291.605 44.4763Z" fill="#0729A2"/>
<path d="M273.104 32.0404C273.104 30.9569 272.789 30.1127 272.159 29.5079C271.554 28.9031 270.747 28.6007 269.739 28.6007C268.806 28.6007 267.987 28.8401 267.281 29.3189C266.575 29.7977 266.058 30.5915 265.73 31.7002L261.306 30.3395C261.734 28.6763 262.667 27.3407 264.104 26.3328C265.566 25.3248 267.52 24.8208 269.966 24.8208C271.629 24.8208 273.079 25.0854 274.314 25.6146C275.55 26.1186 276.508 26.8872 277.188 27.9203C277.894 28.9535 278.247 30.2513 278.247 31.8136V39.4868C278.247 40.4444 278.701 40.9232 279.609 40.9232C280.037 40.9232 280.441 40.8602 280.819 40.7342L280.516 43.9471C279.861 44.2747 279.041 44.4385 278.058 44.4385C277.176 44.4385 276.382 44.2873 275.676 43.9849C274.97 43.6825 274.415 43.229 274.012 42.6242C273.608 41.9942 273.407 41.213 273.407 40.2806V40.1294L274.314 39.9782C274.163 40.9358 273.747 41.7548 273.066 42.4352C272.386 43.0904 271.554 43.5943 270.571 43.9471C269.613 44.2999 268.617 44.4763 267.583 44.4763C266.297 44.4763 265.188 44.2873 264.255 43.9093C263.323 43.5061 262.604 42.9266 262.1 42.1706C261.596 41.4146 261.343 40.4822 261.343 39.3734C261.343 37.9623 261.797 36.8157 262.705 35.9337C263.612 35.0266 264.911 34.4092 266.6 34.0816L273.709 32.6452L273.672 35.8581L269.134 36.7653C268.276 36.9417 267.621 37.1811 267.167 37.4835C266.739 37.7607 266.524 38.2269 266.524 38.8821C266.524 39.512 266.751 39.9908 267.205 40.3184C267.684 40.646 268.251 40.8098 268.907 40.8098C269.436 40.8098 269.953 40.7468 270.457 40.6208C270.961 40.4948 271.415 40.2932 271.819 40.016C272.222 39.7388 272.537 39.3608 272.764 38.8821C272.991 38.4033 273.104 37.8237 273.104 37.1433V32.0404Z" fill="#0729A2"/>
<path d="M254.493 25.1992H259.863L252.678 44.0988H246.703L239.518 25.1992H245.039L249.728 40.1299L254.493 25.1992Z" fill="#0729A2"/>
<path d="M219.156 44.0983V25.1988H223.807L224.11 30.8687L223.467 30.2639C223.77 29.0291 224.249 28.0085 224.904 27.2021C225.56 26.3958 226.354 25.8036 227.286 25.4256C228.244 25.0224 229.291 24.8208 230.425 24.8208C231.736 24.8208 232.896 25.0728 233.904 25.5768C234.938 26.0808 235.745 26.8494 236.325 27.8825C236.93 28.8905 237.232 30.1631 237.232 31.7002V44.0983H232.051V33.1744C232.051 31.5616 231.736 30.4529 231.106 29.8481C230.476 29.2181 229.656 28.9031 228.648 28.9031C227.942 28.9031 227.249 29.0795 226.568 29.4323C225.912 29.7599 225.37 30.3017 224.942 31.0577C224.539 31.8136 224.337 32.8216 224.337 34.0816V44.0983H219.156Z" fill="#0729A2"/>
<path d="M208.219 32.0404C208.219 30.9569 207.904 30.1127 207.273 29.5079C206.668 28.9031 205.862 28.6007 204.853 28.6007C203.92 28.6007 203.101 28.8401 202.395 29.3189C201.689 29.7977 201.172 30.5915 200.845 31.7002L196.42 30.3395C196.849 28.6763 197.782 27.3407 199.219 26.3328C200.681 25.3248 202.635 24.8208 205.08 24.8208C206.744 24.8208 208.194 25.0854 209.429 25.6146C210.664 26.1186 211.622 26.8872 212.303 27.9203C213.009 28.9535 213.362 30.2513 213.362 31.8136V39.4868C213.362 40.4444 213.816 40.9232 214.723 40.9232C215.152 40.9232 215.555 40.8602 215.933 40.7342L215.631 43.9471C214.975 44.2747 214.156 44.4385 213.173 44.4385C212.29 44.4385 211.496 44.2873 210.79 43.9849C210.084 43.6825 209.53 43.229 209.126 42.6242C208.723 41.9942 208.521 41.213 208.521 40.2806V40.1294L209.429 39.9782C209.278 40.9358 208.862 41.7548 208.181 42.4352C207.5 43.0904 206.668 43.5943 205.685 43.9471C204.727 44.2999 203.731 44.4763 202.698 44.4763C201.412 44.4763 200.303 44.2873 199.37 43.9093C198.437 43.5061 197.719 42.9266 197.214 42.1706C196.71 41.4146 196.458 40.4822 196.458 39.3734C196.458 37.9623 196.912 36.8157 197.819 35.9337C198.727 35.0266 200.025 34.4092 201.714 34.0816L208.824 32.6452L208.786 35.8581L204.248 36.7653C203.391 36.9417 202.735 37.1811 202.282 37.4835C201.853 37.7607 201.639 38.2269 201.639 38.8821C201.639 39.512 201.866 39.9908 202.319 40.3184C202.798 40.646 203.366 40.8098 204.021 40.8098C204.551 40.8098 205.067 40.7468 205.572 40.6208C206.076 40.4948 206.53 40.2932 206.933 40.016C207.336 39.7388 207.652 39.3608 207.878 38.8821C208.105 38.4033 208.219 37.8237 208.219 37.1433V32.0404Z" fill="#0729A2"/>
<path d="M193.523 37.2194C193.044 38.8321 192.287 40.1803 191.254 41.2639C190.22 42.3475 188.997 43.1538 187.586 43.683C186.174 44.2122 184.623 44.4768 182.934 44.4768C180.464 44.4768 178.321 43.9602 176.505 42.927C174.716 41.8939 173.329 40.4197 172.346 38.5046C171.388 36.5894 170.909 34.2963 170.909 31.6251C170.909 28.954 171.388 26.6608 172.346 24.7457C173.329 22.8305 174.716 21.3564 176.505 20.3232C178.321 19.29 180.438 18.7734 182.859 18.7734C184.573 18.7734 186.123 19.0128 187.51 19.4916C188.897 19.9452 190.069 20.6508 191.027 21.6084C192.01 22.5659 192.729 23.7755 193.182 25.2371L188.455 27.2404C188.027 25.7285 187.371 24.6575 186.489 24.0275C185.607 23.3723 184.472 23.0447 183.085 23.0447C181.724 23.0447 180.527 23.3723 179.493 24.0275C178.485 24.6827 177.703 25.6529 177.148 26.938C176.594 28.198 176.316 29.7604 176.316 31.6251C176.316 33.4647 176.569 35.027 177.073 36.3122C177.602 37.5974 178.371 38.5676 179.379 39.2227C180.388 39.8779 181.623 40.2055 183.085 40.2055C184.447 40.2055 185.619 39.8401 186.602 39.1093C187.611 38.3786 188.317 37.2698 188.72 35.783L193.523 37.2194Z" fill="#0729A2"/>
<path d="M157.574 24.8208C159.415 24.8208 161.041 25.2114 162.453 25.9926C163.864 26.7738 164.961 27.9077 165.743 29.3945C166.549 30.8561 166.953 32.6074 166.953 34.6486C166.953 36.6897 166.549 38.4537 165.743 39.9404C164.961 41.402 163.864 42.5234 162.453 43.3046C161.041 44.0857 159.415 44.4763 157.574 44.4763C155.734 44.4763 154.108 44.0857 152.696 43.3046C151.284 42.5234 150.175 41.402 149.368 39.9404C148.562 38.4537 148.158 36.6897 148.158 34.6486C148.158 32.6074 148.562 30.8561 149.368 29.3945C150.175 27.9077 151.284 26.7738 152.696 25.9926C154.108 25.2114 155.734 24.8208 157.574 24.8208ZM157.574 27.9959C156.44 27.9959 155.469 28.2605 154.663 28.7897C153.881 29.2937 153.276 30.0371 152.847 31.0199C152.419 32.0026 152.205 33.2122 152.205 34.6486C152.205 36.0597 152.419 37.2693 152.847 38.2773C153.276 39.2601 153.881 40.016 154.663 40.5452C155.469 41.0492 156.44 41.3012 157.574 41.3012C158.709 41.3012 159.667 41.0492 160.448 40.5452C161.23 40.016 161.835 39.2601 162.264 38.2773C162.692 37.2693 162.906 36.0597 162.906 34.6486C162.906 33.2122 162.692 32.0026 162.264 31.0199C161.835 30.0371 161.23 29.2937 160.448 28.7897C159.667 28.2605 158.709 27.9959 157.574 27.9959Z" fill="black"/>
<path d="M138.862 19.6421V38.4282C138.862 39.3606 139.101 40.041 139.58 40.4694C140.085 40.8978 140.753 41.112 141.585 41.112C142.265 41.112 142.858 41.0112 143.362 40.8096C143.866 40.5828 144.333 40.2804 144.761 39.9024L145.669 42.8507C145.089 43.3547 144.371 43.7579 143.513 44.0603C142.681 44.3375 141.749 44.4761 140.715 44.4761C139.631 44.4761 138.635 44.2997 137.727 43.9469C136.82 43.5941 136.114 43.0271 135.61 42.2459C135.106 41.4396 134.841 40.3938 134.816 39.1086V20.7761L138.862 19.6421ZM145.366 25.1986V28.3737H131.185V25.1986H145.366Z" fill="black"/>
<path d="M116.696 44.4767C115.46 44.4767 114.313 44.25 113.254 43.7964C112.221 43.3428 111.389 42.612 110.759 41.604C110.128 40.596 109.813 39.2857 109.813 37.6729V25.1992H113.86V36.6523C113.86 38.3659 114.225 39.5503 114.956 40.2055C115.687 40.8354 116.708 41.1504 118.019 41.1504C118.65 41.1504 119.255 41.0496 119.834 40.848C120.44 40.6212 120.982 40.2811 121.461 39.8275C121.94 39.3487 122.305 38.7439 122.557 38.0131C122.835 37.2823 122.973 36.4255 122.973 35.4428V25.1992H127.02V44.0988H123.465L123.276 41.037C122.62 42.2214 121.738 43.0908 120.629 43.6452C119.519 44.1996 118.208 44.4767 116.696 44.4767Z" fill="black"/>
<path d="M106.364 44.0992H102.091L99.7084 37.56H89.2333L86.8509 44.0992H82.6912L92.1074 19.1519H96.9478L106.364 44.0992ZM90.3678 34.2715H98.5739L94.4898 22.6294L90.3678 34.2715Z" fill="black"/>
</svg>
